<?xml version="1.0" encoding="utf-8" standalone="no"?>
<!DOCTYPE svg PUBLIC "-//W3C//DTD SVG 1.1//EN"
  "http://www.w3.org/Graphics/SVG/1.1/DTD/svg11.dtd">
<svg xmlns:xlink="http://www.w3.org/1999/xlink" width="636.9984pt" height="351.6876pt" viewBox="0 0 636.9984 351.6876" xmlns="http://www.w3.org/2000/svg" version="1.1">
 <metadata>
  <rdf:RDF xmlns:dc="http://purl.org/dc/elements/1.1/" xmlns:cc="http://creativecommons.org/ns#" xmlns:rdf="http://www.w3.org/1999/02/22-rdf-syntax-ns#">
   <cc:Work>
    <dc:type rdf:resource="http://purl.org/dc/dcmitype/StillImage"/>
    <dc:date>2023-09-27T23:05:08.203003</dc:date>
    <dc:format>image/svg+xml</dc:format>
    <dc:creator>
     <cc:Agent>
      <dc:title>Matplotlib v3.6.2, https://matplotlib.org/</dc:title>
     </cc:Agent>
    </dc:creator>
   </cc:Work>
  </rdf:RDF>
 </metadata>
 <defs>
  <style type="text/css">*{stroke-linejoin: round; stroke-linecap: butt}</style>
 </defs>
 <g id="figure_1">
  <g id="patch_1">
   <path d="M 0 351.6876 
L 636.9984 351.6876 
L 636.9984 0 
L 0 0 
L 0 351.6876 
z
" style="fill: none"/>
  </g>
  <g id="axes_1">
   <g id="patch_2">
    <path d="M 65.5424 294.04 
L 629.7984 294.04 
L 629.7984 7.2 
L 65.5424 7.2 
L 65.5424 294.04 
z
" style="fill: none"/>
   </g>
   <g id="patch_3">
    <path d="M 79.6488 274.361775 
L 192.5 274.361775 
L 192.5 215.193805 
L 79.6488 215.193805 
L 79.6488 274.361775 
z
" clip-path="url(#p551e5654dd)" style="fill: #388dab; stroke: #404040; stroke-width: 1.5; stroke-linejoin: miter"/>
   </g>
   <g id="patch_4">
    <path d="M 220.7128 277.175771 
L 333.564 277.175771 
L 333.564 223.709845 
L 220.7128 223.709845 
L 220.7128 277.175771 
z
" clip-path="url(#p551e5654dd)" style="fill: #d08643; stroke: #404040; stroke-width: 1.5; stroke-linejoin: miter"/>
   </g>
   <g id="patch_5">
    <path d="M 361.7768 279.915714 
L 474.628 279.915714 
L 474.628 275.941562 
L 361.7768 275.941562 
L 361.7768 279.915714 
z
" clip-path="url(#p551e5654dd)" style="fill: #488c48; stroke: #404040; stroke-width: 1.5; stroke-linejoin: miter"/>
   </g>
   <g id="patch_6">
    <path d="M 502.8408 273.44846 
L 615.692 273.44846 
L 615.692 242.371083 
L 502.8408 242.371083 
L 502.8408 273.44846 
z
" clip-path="url(#p551e5654dd)" style="fill: #b64d4d; stroke: #404040; stroke-width: 1.5; stroke-linejoin: miter"/>
   </g>
   <g id="matplotlib.axis_1">
    <g id="xtick_1">
     <g id="line2d_1">
      <defs>
       <path id="m217849fde5" d="M 0 0 
L 0 3.5 
" style="stroke: #000000; stroke-width: 0.8"/>
      </defs>
      <g>
       <use xlink:href="#m217849fde5" x="136.0744" y="294.04" style="stroke: #000000; stroke-width: 0.8"/>
      </g>
     </g>
     <g id="text_1">
      <!-- Baseline -->
      <g transform="translate(99.44215 314.1701) scale(0.1728 -0.1728)">
       <defs>
        <path id="DejaVuSans-42" d="M 1259 2228 
L 1259 519 
L 2272 519 
Q 2781 519 3026 730 
Q 3272 941 3272 1375 
Q 3272 1813 3026 2020 
Q 2781 2228 2272 2228 
L 1259 2228 
z
M 1259 4147 
L 1259 2741 
L 2194 2741 
Q 2656 2741 2882 2914 
Q 3109 3088 3109 3444 
Q 3109 3797 2882 3972 
Q 2656 4147 2194 4147 
L 1259 4147 
z
M 628 4666 
L 2241 4666 
Q 2963 4666 3353 4366 
Q 3744 4066 3744 3513 
Q 3744 3084 3544 2831 
Q 3344 2578 2956 2516 
Q 3422 2416 3680 2098 
Q 3938 1781 3938 1306 
Q 3938 681 3513 340 
Q 3088 0 2303 0 
L 628 0 
L 628 4666 
z
" transform="scale(0.015625)"/>
        <path id="DejaVuSans-61" d="M 2194 1759 
Q 1497 1759 1228 1600 
Q 959 1441 959 1056 
Q 959 750 1161 570 
Q 1363 391 1709 391 
Q 2188 391 2477 730 
Q 2766 1069 2766 1631 
L 2766 1759 
L 2194 1759 
z
M 3341 1997 
L 3341 0 
L 2766 0 
L 2766 531 
Q 2569 213 2275 61 
Q 1981 -91 1556 -91 
Q 1019 -91 701 211 
Q 384 513 384 1019 
Q 384 1609 779 1909 
Q 1175 2209 1959 2209 
L 2766 2209 
L 2766 2266 
Q 2766 2663 2505 2880 
Q 2244 3097 1772 3097 
Q 1472 3097 1187 3025 
Q 903 2953 641 2809 
L 641 3341 
Q 956 3463 1253 3523 
Q 1550 3584 1831 3584 
Q 2591 3584 2966 3190 
Q 3341 2797 3341 1997 
z
" transform="scale(0.015625)"/>
        <path id="DejaVuSans-73" d="M 2834 3397 
L 2834 2853 
Q 2591 2978 2328 3040 
Q 2066 3103 1784 3103 
Q 1356 3103 1142 2972 
Q 928 2841 928 2578 
Q 928 2378 1081 2264 
Q 1234 2150 1697 2047 
L 1894 2003 
Q 2506 1872 2764 1633 
Q 3022 1394 3022 966 
Q 3022 478 2636 193 
Q 2250 -91 1575 -91 
Q 1294 -91 989 -36 
Q 684 19 347 128 
L 347 722 
Q 666 556 975 473 
Q 1284 391 1588 391 
Q 1994 391 2212 530 
Q 2431 669 2431 922 
Q 2431 1156 2273 1281 
Q 2116 1406 1581 1522 
L 1381 1569 
Q 847 1681 609 1914 
Q 372 2147 372 2553 
Q 372 3047 722 3315 
Q 1072 3584 1716 3584 
Q 2034 3584 2315 3537 
Q 2597 3491 2834 3397 
z
" transform="scale(0.015625)"/>
        <path id="DejaVuSans-65" d="M 3597 1894 
L 3597 1613 
L 953 1613 
Q 991 1019 1311 708 
Q 1631 397 2203 397 
Q 2534 397 2845 478 
Q 3156 559 3463 722 
L 3463 178 
Q 3153 47 2828 -22 
Q 2503 -91 2169 -91 
Q 1331 -91 842 396 
Q 353 884 353 1716 
Q 353 2575 817 3079 
Q 1281 3584 2069 3584 
Q 2775 3584 3186 3129 
Q 3597 2675 3597 1894 
z
M 3022 2063 
Q 3016 2534 2758 2815 
Q 2500 3097 2075 3097 
Q 1594 3097 1305 2825 
Q 1016 2553 972 2059 
L 3022 2063 
z
" transform="scale(0.015625)"/>
        <path id="DejaVuSans-6c" d="M 603 4863 
L 1178 4863 
L 1178 0 
L 603 0 
L 603 4863 
z
" transform="scale(0.015625)"/>
        <path id="DejaVuSans-69" d="M 603 3500 
L 1178 3500 
L 1178 0 
L 603 0 
L 603 3500 
z
M 603 4863 
L 1178 4863 
L 1178 4134 
L 603 4134 
L 603 4863 
z
" transform="scale(0.015625)"/>
        <path id="DejaVuSans-6e" d="M 3513 2113 
L 3513 0 
L 2938 0 
L 2938 2094 
Q 2938 2591 2744 2837 
Q 2550 3084 2163 3084 
Q 1697 3084 1428 2787 
Q 1159 2491 1159 1978 
L 1159 0 
L 581 0 
L 581 3500 
L 1159 3500 
L 1159 2956 
Q 1366 3272 1645 3428 
Q 1925 3584 2291 3584 
Q 2894 3584 3203 3211 
Q 3513 2838 3513 2113 
z
" transform="scale(0.015625)"/>
       </defs>
       <use xlink:href="#DejaVuSans-42"/>
       <use xlink:href="#DejaVuSans-61" x="68.603516"/>
       <use xlink:href="#DejaVuSans-73" x="129.882812"/>
       <use xlink:href="#DejaVuSans-65" x="181.982422"/>
       <use xlink:href="#DejaVuSans-6c" x="243.505859"/>
       <use xlink:href="#DejaVuSans-69" x="271.289062"/>
       <use xlink:href="#DejaVuSans-6e" x="299.072266"/>
       <use xlink:href="#DejaVuSans-65" x="362.451172"/>
      </g>
     </g>
    </g>
    <g id="xtick_2">
     <g id="line2d_2">
      <g>
       <use xlink:href="#m217849fde5" x="277.1384" y="294.04" style="stroke: #000000; stroke-width: 0.8"/>
      </g>
     </g>
     <g id="text_2">
      <!-- Visual -->
      <g transform="translate(251.3507 314.1701) scale(0.1728 -0.1728)">
       <defs>
        <path id="DejaVuSans-56" d="M 1831 0 
L 50 4666 
L 709 4666 
L 2188 738 
L 3669 4666 
L 4325 4666 
L 2547 0 
L 1831 0 
z
" transform="scale(0.015625)"/>
        <path id="DejaVuSans-75" d="M 544 1381 
L 544 3500 
L 1119 3500 
L 1119 1403 
Q 1119 906 1312 657 
Q 1506 409 1894 409 
Q 2359 409 2629 706 
Q 2900 1003 2900 1516 
L 2900 3500 
L 3475 3500 
L 3475 0 
L 2900 0 
L 2900 538 
Q 2691 219 2414 64 
Q 2138 -91 1772 -91 
Q 1169 -91 856 284 
Q 544 659 544 1381 
z
M 1991 3584 
L 1991 3584 
z
" transform="scale(0.015625)"/>
       </defs>
       <use xlink:href="#DejaVuSans-56"/>
       <use xlink:href="#DejaVuSans-69" x="66.158203"/>
       <use xlink:href="#DejaVuSans-73" x="93.941406"/>
       <use xlink:href="#DejaVuSans-75" x="146.041016"/>
       <use xlink:href="#DejaVuSans-61" x="209.419922"/>
       <use xlink:href="#DejaVuSans-6c" x="270.699219"/>
      </g>
     </g>
    </g>
    <g id="xtick_3">
     <g id="line2d_3">
      <g>
       <use xlink:href="#m217849fde5" x="418.2024" y="294.04" style="stroke: #000000; stroke-width: 0.8"/>
      </g>
     </g>
     <g id="text_3">
      <!-- Haptic -->
      <g transform="translate(390.387 314.1701) scale(0.1728 -0.1728)">
       <defs>
        <path id="DejaVuSans-48" d="M 628 4666 
L 1259 4666 
L 1259 2753 
L 3553 2753 
L 3553 4666 
L 4184 4666 
L 4184 0 
L 3553 0 
L 3553 2222 
L 1259 2222 
L 1259 0 
L 628 0 
L 628 4666 
z
" transform="scale(0.015625)"/>
        <path id="DejaVuSans-70" d="M 1159 525 
L 1159 -1331 
L 581 -1331 
L 581 3500 
L 1159 3500 
L 1159 2969 
Q 1341 3281 1617 3432 
Q 1894 3584 2278 3584 
Q 2916 3584 3314 3078 
Q 3713 2572 3713 1747 
Q 3713 922 3314 415 
Q 2916 -91 2278 -91 
Q 1894 -91 1617 61 
Q 1341 213 1159 525 
z
M 3116 1747 
Q 3116 2381 2855 2742 
Q 2594 3103 2138 3103 
Q 1681 3103 1420 2742 
Q 1159 2381 1159 1747 
Q 1159 1113 1420 752 
Q 1681 391 2138 391 
Q 2594 391 2855 752 
Q 3116 1113 3116 1747 
z
" transform="scale(0.015625)"/>
        <path id="DejaVuSans-74" d="M 1172 4494 
L 1172 3500 
L 2356 3500 
L 2356 3053 
L 1172 3053 
L 1172 1153 
Q 1172 725 1289 603 
Q 1406 481 1766 481 
L 2356 481 
L 2356 0 
L 1766 0 
Q 1100 0 847 248 
Q 594 497 594 1153 
L 594 3053 
L 172 3053 
L 172 3500 
L 594 3500 
L 594 4494 
L 1172 4494 
z
" transform="scale(0.015625)"/>
        <path id="DejaVuSans-63" d="M 3122 3366 
L 3122 2828 
Q 2878 2963 2633 3030 
Q 2388 3097 2138 3097 
Q 1578 3097 1268 2742 
Q 959 2388 959 1747 
Q 959 1106 1268 751 
Q 1578 397 2138 397 
Q 2388 397 2633 464 
Q 2878 531 3122 666 
L 3122 134 
Q 2881 22 2623 -34 
Q 2366 -91 2075 -91 
Q 1284 -91 818 406 
Q 353 903 353 1747 
Q 353 2603 823 3093 
Q 1294 3584 2113 3584 
Q 2378 3584 2631 3529 
Q 2884 3475 3122 3366 
z
" transform="scale(0.015625)"/>
       </defs>
       <use xlink:href="#DejaVuSans-48"/>
       <use xlink:href="#DejaVuSans-61" x="75.195312"/>
       <use xlink:href="#DejaVuSans-70" x="136.474609"/>
       <use xlink:href="#DejaVuSans-74" x="199.951172"/>
       <use xlink:href="#DejaVuSans-69" x="239.160156"/>
       <use xlink:href="#DejaVuSans-63" x="266.943359"/>
      </g>
     </g>
    </g>
    <g id="xtick_4">
     <g id="line2d_4">
      <g>
       <use xlink:href="#m217849fde5" x="559.2664" y="294.04" style="stroke: #000000; stroke-width: 0.8"/>
      </g>
     </g>
     <g id="text_4">
      <!-- Audio -->
      <g transform="translate(534.70855 314.1701) scale(0.1728 -0.1728)">
       <defs>
        <path id="DejaVuSans-41" d="M 2188 4044 
L 1331 1722 
L 3047 1722 
L 2188 4044 
z
M 1831 4666 
L 2547 4666 
L 4325 0 
L 3669 0 
L 3244 1197 
L 1141 1197 
L 716 0 
L 50 0 
L 1831 4666 
z
" transform="scale(0.015625)"/>
        <path id="DejaVuSans-64" d="M 2906 2969 
L 2906 4863 
L 3481 4863 
L 3481 0 
L 2906 0 
L 2906 525 
Q 2725 213 2448 61 
Q 2172 -91 1784 -91 
Q 1150 -91 751 415 
Q 353 922 353 1747 
Q 353 2572 751 3078 
Q 1150 3584 1784 3584 
Q 2172 3584 2448 3432 
Q 2725 3281 2906 2969 
z
M 947 1747 
Q 947 1113 1208 752 
Q 1469 391 1925 391 
Q 2381 391 2643 752 
Q 2906 1113 2906 1747 
Q 2906 2381 2643 2742 
Q 2381 3103 1925 3103 
Q 1469 3103 1208 2742 
Q 947 2381 947 1747 
z
" transform="scale(0.015625)"/>
        <path id="DejaVuSans-6f" d="M 1959 3097 
Q 1497 3097 1228 2736 
Q 959 2375 959 1747 
Q 959 1119 1226 758 
Q 1494 397 1959 397 
Q 2419 397 2687 759 
Q 2956 1122 2956 1747 
Q 2956 2369 2687 2733 
Q 2419 3097 1959 3097 
z
M 1959 3584 
Q 2709 3584 3137 3096 
Q 3566 2609 3566 1747 
Q 3566 888 3137 398 
Q 2709 -91 1959 -91 
Q 1206 -91 779 398 
Q 353 888 353 1747 
Q 353 2609 779 3096 
Q 1206 3584 1959 3584 
z
" transform="scale(0.015625)"/>
       </defs>
       <use xlink:href="#DejaVuSans-41"/>
       <use xlink:href="#DejaVuSans-75" x="68.408203"/>
       <use xlink:href="#DejaVuSans-64" x="131.787109"/>
       <use xlink:href="#DejaVuSans-69" x="195.263672"/>
       <use xlink:href="#DejaVuSans-6f" x="223.046875"/>
      </g>
     </g>
    </g>
    <g id="text_5">
     <!-- Feedback modality -->
     <g transform="translate(265.9954 340.8939) scale(0.1728 -0.1728)">
      <defs>
       <path id="DejaVuSans-46" d="M 628 4666 
L 3309 4666 
L 3309 4134 
L 1259 4134 
L 1259 2759 
L 3109 2759 
L 3109 2228 
L 1259 2228 
L 1259 0 
L 628 0 
L 628 4666 
z
" transform="scale(0.015625)"/>
       <path id="DejaVuSans-62" d="M 3116 1747 
Q 3116 2381 2855 2742 
Q 2594 3103 2138 3103 
Q 1681 3103 1420 2742 
Q 1159 2381 1159 1747 
Q 1159 1113 1420 752 
Q 1681 391 2138 391 
Q 2594 391 2855 752 
Q 3116 1113 3116 1747 
z
M 1159 2969 
Q 1341 3281 1617 3432 
Q 1894 3584 2278 3584 
Q 2916 3584 3314 3078 
Q 3713 2572 3713 1747 
Q 3713 922 3314 415 
Q 2916 -91 2278 -91 
Q 1894 -91 1617 61 
Q 1341 213 1159 525 
L 1159 0 
L 581 0 
L 581 4863 
L 1159 4863 
L 1159 2969 
z
" transform="scale(0.015625)"/>
       <path id="DejaVuSans-6b" d="M 581 4863 
L 1159 4863 
L 1159 1991 
L 2875 3500 
L 3609 3500 
L 1753 1863 
L 3688 0 
L 2938 0 
L 1159 1709 
L 1159 0 
L 581 0 
L 581 4863 
z
" transform="scale(0.015625)"/>
       <path id="DejaVuSans-20" transform="scale(0.015625)"/>
       <path id="DejaVuSans-6d" d="M 3328 2828 
Q 3544 3216 3844 3400 
Q 4144 3584 4550 3584 
Q 5097 3584 5394 3201 
Q 5691 2819 5691 2113 
L 5691 0 
L 5113 0 
L 5113 2094 
Q 5113 2597 4934 2840 
Q 4756 3084 4391 3084 
Q 3944 3084 3684 2787 
Q 3425 2491 3425 1978 
L 3425 0 
L 2847 0 
L 2847 2094 
Q 2847 2600 2669 2842 
Q 2491 3084 2119 3084 
Q 1678 3084 1418 2786 
Q 1159 2488 1159 1978 
L 1159 0 
L 581 0 
L 581 3500 
L 1159 3500 
L 1159 2956 
Q 1356 3278 1631 3431 
Q 1906 3584 2284 3584 
Q 2666 3584 2933 3390 
Q 3200 3197 3328 2828 
z
" transform="scale(0.015625)"/>
       <path id="DejaVuSans-79" d="M 2059 -325 
Q 1816 -950 1584 -1140 
Q 1353 -1331 966 -1331 
L 506 -1331 
L 506 -850 
L 844 -850 
Q 1081 -850 1212 -737 
Q 1344 -625 1503 -206 
L 1606 56 
L 191 3500 
L 800 3500 
L 1894 763 
L 2988 3500 
L 3597 3500 
L 2059 -325 
z
" transform="scale(0.015625)"/>
      </defs>
      <use xlink:href="#DejaVuSans-46"/>
      <use xlink:href="#DejaVuSans-65" x="52.019531"/>
      <use xlink:href="#DejaVuSans-65" x="113.542969"/>
      <use xlink:href="#DejaVuSans-64" x="175.066406"/>
      <use xlink:href="#DejaVuSans-62" x="238.542969"/>
      <use xlink:href="#DejaVuSans-61" x="302.019531"/>
      <use xlink:href="#DejaVuSans-63" x="363.298828"/>
      <use xlink:href="#DejaVuSans-6b" x="418.279297"/>
      <use xlink:href="#DejaVuSans-20" x="476.189453"/>
      <use xlink:href="#DejaVuSans-6d" x="507.976562"/>
      <use xlink:href="#DejaVuSans-6f" x="605.388672"/>
      <use xlink:href="#DejaVuSans-64" x="666.570312"/>
      <use xlink:href="#DejaVuSans-61" x="730.046875"/>
      <use xlink:href="#DejaVuSans-6c" x="791.326172"/>
      <use xlink:href="#DejaVuSans-69" x="819.109375"/>
      <use xlink:href="#DejaVuSans-74" x="846.892578"/>
      <use xlink:href="#DejaVuSans-79" x="886.101562"/>
     </g>
    </g>
   </g>
   <g id="matplotlib.axis_2">
    <g id="ytick_1">
     <g id="line2d_5">
      <path d="M 65.5424 281.001818 
L 629.7984 281.001818 
" clip-path="url(#p551e5654dd)" style="fill: none; stroke: #000000; stroke-opacity: 0.5; stroke-width: 0.8; stroke-linecap: square"/>
     </g>
     <g id="line2d_6">
      <defs>
       <path id="m6c6a43b3b7" d="M 0 0 
L -3.5 0 
" style="stroke: #000000; stroke-width: 0.8"/>
      </defs>
      <g>
       <use xlink:href="#m6c6a43b3b7" x="65.5424" y="281.001818" style="stroke: #000000; stroke-width: 0.8"/>
      </g>
     </g>
     <g id="text_6">
      <!-- 0 -->
      <g transform="translate(47.548 287.566868) scale(0.1728 -0.1728)">
       <defs>
        <path id="DejaVuSans-30" d="M 2034 4250 
Q 1547 4250 1301 3770 
Q 1056 3291 1056 2328 
Q 1056 1369 1301 889 
Q 1547 409 2034 409 
Q 2525 409 2770 889 
Q 3016 1369 3016 2328 
Q 3016 3291 2770 3770 
Q 2525 4250 2034 4250 
z
M 2034 4750 
Q 2819 4750 3233 4129 
Q 3647 3509 3647 2328 
Q 3647 1150 3233 529 
Q 2819 -91 2034 -91 
Q 1250 -91 836 529 
Q 422 1150 422 2328 
Q 422 3509 836 4129 
Q 1250 4750 2034 4750 
z
" transform="scale(0.015625)"/>
       </defs>
       <use xlink:href="#DejaVuSans-30"/>
      </g>
     </g>
    </g>
    <g id="ytick_2">
     <g id="line2d_7">
      <path d="M 65.5424 210.475601 
L 629.7984 210.475601 
" clip-path="url(#p551e5654dd)" style="fill: none; stroke: #000000; stroke-opacity: 0.5; stroke-width: 0.8; stroke-linecap: square"/>
     </g>
     <g id="line2d_8">
      <g>
       <use xlink:href="#m6c6a43b3b7" x="65.5424" y="210.475601" style="stroke: #000000; stroke-width: 0.8"/>
      </g>
     </g>
     <g id="text_7">
      <!-- 5 -->
      <g transform="translate(47.548 217.040651) scale(0.1728 -0.1728)">
       <defs>
        <path id="DejaVuSans-35" d="M 691 4666 
L 3169 4666 
L 3169 4134 
L 1269 4134 
L 1269 2991 
Q 1406 3038 1543 3061 
Q 1681 3084 1819 3084 
Q 2600 3084 3056 2656 
Q 3513 2228 3513 1497 
Q 3513 744 3044 326 
Q 2575 -91 1722 -91 
Q 1428 -91 1123 -41 
Q 819 9 494 109 
L 494 744 
Q 775 591 1075 516 
Q 1375 441 1709 441 
Q 2250 441 2565 725 
Q 2881 1009 2881 1497 
Q 2881 1984 2565 2268 
Q 2250 2553 1709 2553 
Q 1456 2553 1204 2497 
Q 953 2441 691 2322 
L 691 4666 
z
" transform="scale(0.015625)"/>
       </defs>
       <use xlink:href="#DejaVuSans-35"/>
      </g>
     </g>
    </g>
    <g id="ytick_3">
     <g id="line2d_9">
      <path d="M 65.5424 139.949383 
L 629.7984 139.949383 
" clip-path="url(#p551e5654dd)" style="fill: none; stroke: #000000; stroke-opacity: 0.5; stroke-width: 0.8; stroke-linecap: square"/>
     </g>
     <g id="line2d_10">
      <g>
       <use xlink:href="#m6c6a43b3b7" x="65.5424" y="139.949383" style="stroke: #000000; stroke-width: 0.8"/>
      </g>
     </g>
     <g id="text_8">
      <!-- 10 -->
      <g transform="translate(36.5536 146.514433) scale(0.1728 -0.1728)">
       <defs>
        <path id="DejaVuSans-31" d="M 794 531 
L 1825 531 
L 1825 4091 
L 703 3866 
L 703 4441 
L 1819 4666 
L 2450 4666 
L 2450 531 
L 3481 531 
L 3481 0 
L 794 0 
L 794 531 
z
" transform="scale(0.015625)"/>
       </defs>
       <use xlink:href="#DejaVuSans-31"/>
       <use xlink:href="#DejaVuSans-30" x="63.623047"/>
      </g>
     </g>
    </g>
    <g id="ytick_4">
     <g id="line2d_11">
      <path d="M 65.5424 69.423166 
L 629.7984 69.423166 
" clip-path="url(#p551e5654dd)" style="fill: none; stroke: #000000; stroke-opacity: 0.5; stroke-width: 0.8; stroke-linecap: square"/>
     </g>
     <g id="line2d_12">
      <g>
       <use xlink:href="#m6c6a43b3b7" x="65.5424" y="69.423166" style="stroke: #000000; stroke-width: 0.8"/>
      </g>
     </g>
     <g id="text_9">
      <!-- 15 -->
      <g transform="translate(36.5536 75.988216) scale(0.1728 -0.1728)">
       <use xlink:href="#DejaVuSans-31"/>
       <use xlink:href="#DejaVuSans-35" x="63.623047"/>
      </g>
     </g>
    </g>
    <g id="text_10">
     <!-- $mm^3$ of unintended drilling -->
     <g transform="translate(22.9248 267.4328) rotate(-90) scale(0.1728 -0.1728)">
      <defs>
       <path id="DejaVuSans-Oblique-6d" d="M 5747 2113 
L 5338 0 
L 4763 0 
L 5166 2094 
Q 5191 2228 5203 2325 
Q 5216 2422 5216 2491 
Q 5216 2772 5059 2928 
Q 4903 3084 4622 3084 
Q 4203 3084 3875 2770 
Q 3547 2456 3450 1953 
L 3066 0 
L 2491 0 
L 2900 2094 
Q 2925 2209 2937 2307 
Q 2950 2406 2950 2484 
Q 2950 2769 2794 2926 
Q 2638 3084 2363 3084 
Q 1938 3084 1609 2770 
Q 1281 2456 1184 1953 
L 800 0 
L 225 0 
L 909 3500 
L 1484 3500 
L 1375 2956 
Q 1609 3263 1923 3423 
Q 2238 3584 2597 3584 
Q 2978 3584 3223 3384 
Q 3469 3184 3519 2828 
Q 3781 3197 4126 3390 
Q 4472 3584 4856 3584 
Q 5306 3584 5551 3325 
Q 5797 3066 5797 2591 
Q 5797 2488 5784 2364 
Q 5772 2241 5747 2113 
z
" transform="scale(0.015625)"/>
       <path id="DejaVuSans-33" d="M 2597 2516 
Q 3050 2419 3304 2112 
Q 3559 1806 3559 1356 
Q 3559 666 3084 287 
Q 2609 -91 1734 -91 
Q 1441 -91 1130 -33 
Q 819 25 488 141 
L 488 750 
Q 750 597 1062 519 
Q 1375 441 1716 441 
Q 2309 441 2620 675 
Q 2931 909 2931 1356 
Q 2931 1769 2642 2001 
Q 2353 2234 1838 2234 
L 1294 2234 
L 1294 2753 
L 1863 2753 
Q 2328 2753 2575 2939 
Q 2822 3125 2822 3475 
Q 2822 3834 2567 4026 
Q 2313 4219 1838 4219 
Q 1578 4219 1281 4162 
Q 984 4106 628 3988 
L 628 4550 
Q 988 4650 1302 4700 
Q 1616 4750 1894 4750 
Q 2613 4750 3031 4423 
Q 3450 4097 3450 3541 
Q 3450 3153 3228 2886 
Q 3006 2619 2597 2516 
z
" transform="scale(0.015625)"/>
       <path id="DejaVuSans-66" d="M 2375 4863 
L 2375 4384 
L 1825 4384 
Q 1516 4384 1395 4259 
Q 1275 4134 1275 3809 
L 1275 3500 
L 2222 3500 
L 2222 3053 
L 1275 3053 
L 1275 0 
L 697 0 
L 697 3053 
L 147 3053 
L 147 3500 
L 697 3500 
L 697 3744 
Q 697 4328 969 4595 
Q 1241 4863 1831 4863 
L 2375 4863 
z
" transform="scale(0.015625)"/>
       <path id="DejaVuSans-72" d="M 2631 2963 
Q 2534 3019 2420 3045 
Q 2306 3072 2169 3072 
Q 1681 3072 1420 2755 
Q 1159 2438 1159 1844 
L 1159 0 
L 581 0 
L 581 3500 
L 1159 3500 
L 1159 2956 
Q 1341 3275 1631 3429 
Q 1922 3584 2338 3584 
Q 2397 3584 2469 3576 
Q 2541 3569 2628 3553 
L 2631 2963 
z
" transform="scale(0.015625)"/>
       <path id="DejaVuSans-67" d="M 2906 1791 
Q 2906 2416 2648 2759 
Q 2391 3103 1925 3103 
Q 1463 3103 1205 2759 
Q 947 2416 947 1791 
Q 947 1169 1205 825 
Q 1463 481 1925 481 
Q 2391 481 2648 825 
Q 2906 1169 2906 1791 
z
M 3481 434 
Q 3481 -459 3084 -895 
Q 2688 -1331 1869 -1331 
Q 1566 -1331 1297 -1286 
Q 1028 -1241 775 -1147 
L 775 -588 
Q 1028 -725 1275 -790 
Q 1522 -856 1778 -856 
Q 2344 -856 2625 -561 
Q 2906 -266 2906 331 
L 2906 616 
Q 2728 306 2450 153 
Q 2172 0 1784 0 
Q 1141 0 747 490 
Q 353 981 353 1791 
Q 353 2603 747 3093 
Q 1141 3584 1784 3584 
Q 2172 3584 2450 3431 
Q 2728 3278 2906 2969 
L 2906 3500 
L 3481 3500 
L 3481 434 
z
" transform="scale(0.015625)"/>
      </defs>
      <use xlink:href="#DejaVuSans-Oblique-6d" transform="translate(0 0.765625)"/>
      <use xlink:href="#DejaVuSans-Oblique-6d" transform="translate(97.412109 0.765625)"/>
      <use xlink:href="#DejaVuSans-33" transform="translate(199.474115 39.046875) scale(0.7)"/>
      <use xlink:href="#DejaVuSans-20" transform="translate(246.744622 0.765625)"/>
      <use xlink:href="#DejaVuSans-6f" transform="translate(278.531732 0.765625)"/>
      <use xlink:href="#DejaVuSans-66" transform="translate(339.713372 0.765625)"/>
      <use xlink:href="#DejaVuSans-20" transform="translate(374.918451 0.765625)"/>
      <use xlink:href="#DejaVuSans-75" transform="translate(406.70556 0.765625)"/>
      <use xlink:href="#DejaVuSans-6e" transform="translate(470.084466 0.765625)"/>
      <use xlink:href="#DejaVuSans-69" transform="translate(533.463372 0.765625)"/>
      <use xlink:href="#DejaVuSans-6e" transform="translate(561.246576 0.765625)"/>
      <use xlink:href="#DejaVuSans-74" transform="translate(624.625482 0.765625)"/>
      <use xlink:href="#DejaVuSans-65" transform="translate(663.834466 0.765625)"/>
      <use xlink:href="#DejaVuSans-6e" transform="translate(725.357904 0.765625)"/>
      <use xlink:href="#DejaVuSans-64" transform="translate(788.73681 0.765625)"/>
      <use xlink:href="#DejaVuSans-65" transform="translate(852.213372 0.765625)"/>
      <use xlink:href="#DejaVuSans-64" transform="translate(913.73681 0.765625)"/>
      <use xlink:href="#DejaVuSans-20" transform="translate(977.213372 0.765625)"/>
      <use xlink:href="#DejaVuSans-64" transform="translate(1009.000482 0.765625)"/>
      <use xlink:href="#DejaVuSans-72" transform="translate(1072.477044 0.765625)"/>
      <use xlink:href="#DejaVuSans-69" transform="translate(1113.590326 0.765625)"/>
      <use xlink:href="#DejaVuSans-6c" transform="translate(1141.373529 0.765625)"/>
      <use xlink:href="#DejaVuSans-6c" transform="translate(1169.156732 0.765625)"/>
      <use xlink:href="#DejaVuSans-69" transform="translate(1196.939935 0.765625)"/>
      <use xlink:href="#DejaVuSans-6e" transform="translate(1224.723138 0.765625)"/>
      <use xlink:href="#DejaVuSans-67" transform="translate(1288.102044 0.765625)"/>
     </g>
    </g>
   </g>
   <g id="line2d_13">
    <path d="M 136.0744 274.361775 
L 136.0744 280.705608 
" clip-path="url(#p551e5654dd)" style="fill: none; stroke: #404040; stroke-width: 1.5; stroke-linecap: square"/>
   </g>
   <g id="line2d_14">
    <path d="M 136.0744 215.193805 
L 136.0744 212.281072 
" clip-path="url(#p551e5654dd)" style="fill: none; stroke: #404040; stroke-width: 1.5; stroke-linecap: square"/>
   </g>
   <g id="line2d_15">
    <path d="M 107.8616 280.705608 
L 164.2872 280.705608 
" clip-path="url(#p551e5654dd)" style="fill: none; stroke: #404040; stroke-width: 1.5; stroke-linecap: square"/>
   </g>
   <g id="line2d_16">
    <path d="M 107.8616 212.281072 
L 164.2872 212.281072 
" clip-path="url(#p551e5654dd)" style="fill: none; stroke: #404040; stroke-width: 1.5; stroke-linecap: square"/>
   </g>
   <g id="line2d_17"/>
   <g id="line2d_18">
    <path d="M 277.1384 277.175771 
L 277.1384 281.001818 
" clip-path="url(#p551e5654dd)" style="fill: none; stroke: #404040; stroke-width: 1.5; stroke-linecap: square"/>
   </g>
   <g id="line2d_19">
    <path d="M 277.1384 223.709845 
L 277.1384 156.988517 
" clip-path="url(#p551e5654dd)" style="fill: none; stroke: #404040; stroke-width: 1.5; stroke-linecap: square"/>
   </g>
   <g id="line2d_20">
    <path d="M 248.9256 281.001818 
L 305.3512 281.001818 
" clip-path="url(#p551e5654dd)" style="fill: none; stroke: #404040; stroke-width: 1.5; stroke-linecap: square"/>
   </g>
   <g id="line2d_21">
    <path d="M 248.9256 156.988517 
L 305.3512 156.988517 
" clip-path="url(#p551e5654dd)" style="fill: none; stroke: #404040; stroke-width: 1.5; stroke-linecap: square"/>
   </g>
   <g id="line2d_22">
    <defs>
     <path id="m8296437d45" d="M -0 3.535534 
L 2.12132 0 
L -0 -3.535534 
L -2.12132 -0 
z
" style="stroke: #404040; stroke-linejoin: miter"/>
    </defs>
    <g clip-path="url(#p551e5654dd)">
     <use xlink:href="#m8296437d45" x="277.1384" y="20.238182" style="fill: #404040; stroke: #404040; stroke-linejoin: miter"/>
    </g>
   </g>
   <g id="line2d_23">
    <path d="M 418.2024 279.915714 
L 418.2024 280.211925 
" clip-path="url(#p551e5654dd)" style="fill: none; stroke: #404040; stroke-width: 1.5; stroke-linecap: square"/>
   </g>
   <g id="line2d_24">
    <path d="M 418.2024 275.941562 
L 418.2024 271.720568 
" clip-path="url(#p551e5654dd)" style="fill: none; stroke: #404040; stroke-width: 1.5; stroke-linecap: square"/>
   </g>
   <g id="line2d_25">
    <path d="M 389.9896 280.211925 
L 446.4152 280.211925 
" clip-path="url(#p551e5654dd)" style="fill: none; stroke: #404040; stroke-width: 1.5; stroke-linecap: square"/>
   </g>
   <g id="line2d_26">
    <path d="M 389.9896 271.720568 
L 446.4152 271.720568 
" clip-path="url(#p551e5654dd)" style="fill: none; stroke: #404040; stroke-width: 1.5; stroke-linecap: square"/>
   </g>
   <g id="line2d_27">
    <g clip-path="url(#p551e5654dd)">
     <use xlink:href="#m8296437d45" x="418.2024" y="256.317642" style="fill: #404040; stroke: #404040; stroke-linejoin: miter"/>
    </g>
   </g>
   <g id="line2d_28">
    <path d="M 559.2664 273.44846 
L 559.2664 281.001818 
" clip-path="url(#p551e5654dd)" style="fill: none; stroke: #404040; stroke-width: 1.5; stroke-linecap: square"/>
   </g>
   <g id="line2d_29">
    <path d="M 559.2664 242.371083 
L 559.2664 233.706937 
" clip-path="url(#p551e5654dd)" style="fill: none; stroke: #404040; stroke-width: 1.5; stroke-linecap: square"/>
   </g>
   <g id="line2d_30">
    <path d="M 531.0536 281.001818 
L 587.4792 281.001818 
" clip-path="url(#p551e5654dd)" style="fill: none; stroke: #404040; stroke-width: 1.5; stroke-linecap: square"/>
   </g>
   <g id="line2d_31">
    <path d="M 531.0536 233.706937 
L 587.4792 233.706937 
" clip-path="url(#p551e5654dd)" style="fill: none; stroke: #404040; stroke-width: 1.5; stroke-linecap: square"/>
   </g>
   <g id="line2d_32">
    <g clip-path="url(#p551e5654dd)">
     <use xlink:href="#m8296437d45" x="559.2664" y="154.915047" style="fill: #404040; stroke: #404040; stroke-linejoin: miter"/>
    </g>
   </g>
   <g id="line2d_33">
    <path d="M 79.6488 237.952615 
L 192.5 237.952615 
" clip-path="url(#p551e5654dd)" style="fill: none; stroke: #404040; stroke-width: 1.5; stroke-linecap: square"/>
   </g>
   <g id="line2d_34">
    <path d="M 220.7128 263.27858 
L 333.564 263.27858 
" clip-path="url(#p551e5654dd)" style="fill: none; stroke: #404040; stroke-width: 1.5; stroke-linecap: square"/>
   </g>
   <g id="line2d_35">
    <path d="M 361.7768 278.484032 
L 474.628 278.484032 
" clip-path="url(#p551e5654dd)" style="fill: none; stroke: #404040; stroke-width: 1.5; stroke-linecap: square"/>
   </g>
   <g id="line2d_36">
    <path d="M 502.8408 263.57479 
L 615.692 263.57479 
" clip-path="url(#p551e5654dd)" style="fill: none; stroke: #404040; stroke-width: 1.5; stroke-linecap: square"/>
   </g>
   <g id="patch_7">
    <path d="M 65.5424 294.04 
L 65.5424 7.2 
" style="fill: none; stroke: #000000; stroke-width: 0.8; stroke-linejoin: miter; stroke-linecap: square"/>
   </g>
   <g id="patch_8">
    <path d="M 629.7984 294.04 
L 629.7984 7.2 
" style="fill: none; stroke: #000000; stroke-width: 0.8; stroke-linejoin: miter; stroke-linecap: square"/>
   </g>
   <g id="patch_9">
    <path d="M 65.5424 294.04 
L 629.7984 294.04 
" style="fill: none; stroke: #000000; stroke-width: 0.8; stroke-linejoin: miter; stroke-linecap: square"/>
   </g>
   <g id="patch_10">
    <path d="M 65.5424 7.2 
L 629.7984 7.2 
" style="fill: none; stroke: #000000; stroke-width: 0.8; stroke-linejoin: miter; stroke-linecap: square"/>
   </g>
   <g id="PathCollection_1">
    <defs>
     <path id="m31531edd9a" d="M 0 2.5 
C 0.663008 2.5 1.29895 2.236584 1.767767 1.767767 
C 2.236584 1.29895 2.5 0.663008 2.5 0 
C 2.5 -0.663008 2.236584 -1.29895 1.767767 -1.767767 
C 1.29895 -2.236584 0.663008 -2.5 0 -2.5 
C -0.663008 -2.5 -1.29895 -2.236584 -1.767767 -1.767767 
C -2.236584 -1.29895 -2.5 -0.663008 -2.5 0 
C -2.5 0.663008 -2.236584 1.29895 -1.767767 1.767767 
C -1.29895 2.236584 -0.663008 2.5 0 2.5 
z
"/>
    </defs>
    <g clip-path="url(#p551e5654dd)">
     <use xlink:href="#m31531edd9a" x="140.143348" y="212.281072"/>
     <use xlink:href="#m31531edd9a" x="136.0744" y="215.440646"/>
     <use xlink:href="#m31531edd9a" x="136.0744" y="272.312988"/>
     <use xlink:href="#m31531edd9a" x="130.927782" y="214.453279"/>
     <use xlink:href="#m31531edd9a" x="136.0744" y="223.43832"/>
     <use xlink:href="#m31531edd9a" x="136.0744" y="252.466911"/>
     <use xlink:href="#m31531edd9a" x="130.828496" y="280.508135"/>
     <use xlink:href="#m31531edd9a" x="136.0744" y="280.705608"/>
    </g>
   </g>
   <g id="PathCollection_2">
    <g clip-path="url(#p551e5654dd)">
     <use xlink:href="#m31531edd9a" x="277.1384" y="245.950288"/>
     <use xlink:href="#m31531edd9a" x="279.333691" y="276.45993"/>
     <use xlink:href="#m31531edd9a" x="272.193072" y="279.323294"/>
     <use xlink:href="#m31531edd9a" x="277.1384" y="281.001818"/>
     <use xlink:href="#m31531edd9a" x="277.1384" y="20.238182"/>
     <use xlink:href="#m31531edd9a" x="277.1384" y="156.988517"/>
     <use xlink:href="#m31531edd9a" x="272.461146" y="262.143108"/>
     <use xlink:href="#m31531edd9a" x="277.1384" y="264.414052"/>
    </g>
   </g>
   <g id="PathCollection_3">
    <g clip-path="url(#p551e5654dd)">
     <use xlink:href="#m31531edd9a" x="418.2024" y="256.317642"/>
     <use xlink:href="#m31531edd9a" x="433.405451" y="277.34856"/>
     <use xlink:href="#m31531edd9a" x="412.961621" y="279.915714"/>
     <use xlink:href="#m31531edd9a" x="428.171854" y="277.743507"/>
     <use xlink:href="#m31531edd9a" x="407.762021" y="279.224558"/>
     <use xlink:href="#m31531edd9a" x="418.2024" y="271.720568"/>
     <use xlink:href="#m31531edd9a" x="418.2024" y="280.211925"/>
     <use xlink:href="#m31531edd9a" x="423.443179" y="279.915714"/>
    </g>
   </g>
   <g id="PathCollection_4">
    <g clip-path="url(#p551e5654dd)">
     <use xlink:href="#m31531edd9a" x="559.2664" y="154.915047"/>
     <use xlink:href="#m31531edd9a" x="559.2664" y="272.312988"/>
     <use xlink:href="#m31531edd9a" x="556.333369" y="276.854877"/>
     <use xlink:href="#m31531edd9a" x="556.858623" y="261.353214"/>
     <use xlink:href="#m31531edd9a" x="559.2664" y="265.796366"/>
     <use xlink:href="#m31531edd9a" x="559.2664" y="233.706937"/>
     <use xlink:href="#m31531edd9a" x="559.2664" y="245.259131"/>
     <use xlink:href="#m31531edd9a" x="559.2664" y="281.001818"/>
    </g>
   </g>
  </g>
 </g>
 <defs>
  <clipPath id="p551e5654dd">
   <rect x="65.5424" y="7.2" width="564.256" height="286.84"/>
  </clipPath>
 </defs>
</svg>
